<?xml version="1.0" standalone="no"?>
<!DOCTYPE svg PUBLIC "-//W3C//DTD SVG 1.1//EN" "http://www.w3.org/Graphics/SVG/1.1/DTD/svg11.dtd">

<svg width="800" height="600" version="1.1" xmlns="http://www.w3.org/2000/svg">
	<ellipse stroke="black" stroke-width="1" fill="none" cx="40.5" cy="232.5" rx="30" ry="30"/>
	<text x="33.5" y="238.5" font-family="Times New Roman" font-size="20">s&#8321;</text>
	<ellipse stroke="black" stroke-width="1" fill="none" cx="212.5" cy="230.5" rx="30" ry="30"/>
	<text x="205.5" y="236.5" font-family="Times New Roman" font-size="20">s&#8322;</text>
	<ellipse stroke="black" stroke-width="1" fill="none" cx="375.5" cy="117.5" rx="30" ry="30"/>
	<text x="368.5" y="123.5" font-family="Times New Roman" font-size="20">s&#8323;</text>
	<ellipse stroke="black" stroke-width="1" fill="none" cx="693.5" cy="117.5" rx="30" ry="30"/>
	<text x="686.5" y="123.5" font-family="Times New Roman" font-size="20">s&#8324;</text>
	<ellipse stroke="black" stroke-width="1" fill="none" cx="693.5" cy="117.5" rx="24" ry="24"/>
	<ellipse stroke="black" stroke-width="1" fill="none" cx="378.5" cy="232.5" rx="30" ry="30"/>
	<text x="371.5" y="238.5" font-family="Times New Roman" font-size="20">s&#8325;</text>
	<ellipse stroke="black" stroke-width="1" fill="none" cx="693.5" cy="232.5" rx="30" ry="30"/>
	<text x="686.5" y="238.5" font-family="Times New Roman" font-size="20">s&#8326;</text>
	<ellipse stroke="black" stroke-width="1" fill="none" cx="693.5" cy="232.5" rx="24" ry="24"/>
	<ellipse stroke="black" stroke-width="1" fill="none" cx="207.5" cy="379.5" rx="30" ry="30"/>
	<text x="200.5" y="385.5" font-family="Times New Roman" font-size="20">s&#8327;</text>
	<ellipse stroke="black" stroke-width="1" fill="none" cx="322.5" cy="378.5" rx="30" ry="30"/>
	<text x="315.5" y="384.5" font-family="Times New Roman" font-size="20">s&#8328;</text>
	<ellipse stroke="black" stroke-width="1" fill="none" cx="456.5" cy="378.5" rx="30" ry="30"/>
	<text x="449.5" y="384.5" font-family="Times New Roman" font-size="20">s&#8329;</text>
	<ellipse stroke="black" stroke-width="1" fill="none" cx="571.5" cy="378.5" rx="30" ry="30"/>
	<text x="561.5" y="384.5" font-family="Times New Roman" font-size="20">s&#8321;&#8320;</text>
	<ellipse stroke="black" stroke-width="1" fill="none" cx="700.5" cy="378.5" rx="30" ry="30"/>
	<text x="690.5" y="384.5" font-family="Times New Roman" font-size="20">s&#8321;&#8321;</text>
	<ellipse stroke="black" stroke-width="1" fill="none" cx="700.5" cy="378.5" rx="24" ry="24"/>
	<polygon stroke="black" stroke-width="1" points="70.498,232.151 182.502,230.849"/>
	<polygon fill="black" stroke-width="1" points="182.502,230.849 174.444,225.942 174.561,235.941"/>
	<text x="121.5" y="252.5" font-family="Times New Roman" font-size="20">n</text>
	<polygon stroke="black" stroke-width="1" points="242.498,230.861 348.502,232.139"/>
	<polygon fill="black" stroke-width="1" points="348.502,232.139 340.563,227.043 340.443,237.042"/>
	<text x="290.5" y="252.5" font-family="Times New Roman" font-size="20">o</text>
	<polygon stroke="black" stroke-width="1" points="408.5,232.5 663.5,232.5"/>
	<polygon fill="black" stroke-width="1" points="663.5,232.5 655.5,227.5 655.5,237.5"/>
	<text x="533.5" y="253.5" font-family="Times New Roman" font-size="20">t</text>
	<polygon stroke="black" stroke-width="1" points="237.155,213.408 350.845,134.592"/>
	<polygon fill="black" stroke-width="1" points="350.845,134.592 341.422,135.041 347.119,143.259"/>
	<text x="299.5" y="194.5" font-family="Times New Roman" font-size="20">e</text>
	<polygon stroke="black" stroke-width="1" points="405.5,117.5 663.5,117.5"/>
	<polygon fill="black" stroke-width="1" points="663.5,117.5 655.5,112.5 655.5,122.5"/>
	<text x="527.5" y="138.5" font-family="Times New Roman" font-size="20">w</text>
	<polygon stroke="black" stroke-width="1" points="63.019,252.322 184.981,359.678"/>
	<polygon fill="black" stroke-width="1" points="184.981,359.678 182.28,350.639 175.673,358.145"/>
	<text x="103.5" y="326.5" font-family="Times New Roman" font-size="20">w</text>
	<polygon stroke="black" stroke-width="1" points="237.499,379.239 292.501,378.761"/>
	<polygon fill="black" stroke-width="1" points="292.501,378.761 284.458,373.831 284.545,383.83"/>
	<text x="259.5" y="400.5" font-family="Times New Roman" font-size="20">h</text>
	<polygon stroke="black" stroke-width="1" points="352.5,378.5 426.5,378.5"/>
	<polygon fill="black" stroke-width="1" points="426.5,378.5 418.5,373.5 418.5,383.5"/>
	<text x="387.5" y="399.5" font-family="Times New Roman" font-size="20">i</text>
	<polygon stroke="black" stroke-width="1" points="486.5,378.5 541.5,378.5"/>
	<polygon fill="black" stroke-width="1" points="541.5,378.5 533.5,373.5 533.5,383.5"/>
	<text x="511.5" y="399.5" font-family="Times New Roman" font-size="20">l</text>
	<polygon stroke="black" stroke-width="1" points="601.5,378.5 670.5,378.5"/>
	<polygon fill="black" stroke-width="1" points="670.5,378.5 662.5,373.5 662.5,383.5"/>
	<text x="631.5" y="399.5" font-family="Times New Roman" font-size="20">e</text>
</svg>
